<svg width="1144" height="1050" viewBox="0 0 1144 1050" fill="none" xmlns="http://www.w3.org/2000/svg">
<mask id="mask0_1_161" style="mask-type:alpha" maskUnits="userSpaceOnUse" x="0" y="0" width="1144" height="1050">
<path d="M21.417 80.6311C7.37992 105.35 0 133.293 0 161.723C0 190.154 7.37992 218.096 21.417 242.815L433.674 968.591C462.243 1019.34 514.01 1049.22 572.005 1049.22C630 1049.22 681.766 1019.34 710.335 968.591L1122.59 242.815C1136.62 218.1 1144 190.163 1144 161.739C1144 133.315 1136.62 105.378 1122.59 80.6629C1094.02 29.8869 1042.32 0 984.262 0H159.747C101.689 0 49.9856 29.8869 21.417 80.6311Z" fill="white"/>
</mask>
<g mask="url(#mask0_1_161)">
<path d="M21.417 80.6311C7.37992 105.35 0 133.293 0 161.723C0 190.154 7.37992 218.096 21.417 242.815L433.674 968.591C462.243 1019.34 514.01 1049.22 572.005 1049.22C630 1049.22 681.766 1019.34 710.335 968.591L1122.59 242.815C1136.62 218.1 1144 190.163 1144 161.739C1144 133.315 1136.62 105.378 1122.59 80.6629C1094.02 29.8869 1042.32 0 984.262 0H159.747C101.689 0 49.9856 29.8869 21.417 80.6311Z" fill="#A30046"/>
<path fill-rule="evenodd" clip-rule="evenodd" d="M-0.00158691 0H1144.01V1049.22H-0.00158691V0Z" fill="#CC0A4D"/>
<path fill-rule="evenodd" clip-rule="evenodd" d="M681.639 605.083H458.398L858.802 332.381L953.342 158.973H190.668L313.013 383.729L463.165 281.859H685.612L373.392 493.993L572.005 858.455L727.718 573.098L681.639 605.083Z" fill="white"/>
</g>
</svg>
